<?xml version="1.0" encoding="UTF-8" standalone="no"?>
<!-- Created with Inkscape (http://www.inkscape.org/) -->

<svg
   width="1500"
   height="800"
   viewBox="0 0 1500 800"
   version="1.1"
   id="svg1"
   xml:space="preserve"
   inkscape:version="1.3.2 (091e20ef0f, 2023-11-25)"
   sodipodi:docname="header.svg"
   xmlns:inkscape="http://www.inkscape.org/namespaces/inkscape"
   xmlns:sodipodi="http://sodipodi.sourceforge.net/DTD/sodipodi-0.dtd"
   xmlns="http://www.w3.org/2000/svg"
   xmlns:svg="http://www.w3.org/2000/svg"><sodipodi:namedview
     id="namedview1"
     pagecolor="#505050"
     bordercolor="#eeeeee"
     borderopacity="1"
     inkscape:showpageshadow="0"
     inkscape:pageopacity="0"
     inkscape:pagecheckerboard="0"
     inkscape:deskcolor="#505050"
     inkscape:document-units="px"
     inkscape:zoom="0.45299479"
     inkscape:cx="873.07847"
     inkscape:cy="352.10118"
     inkscape:window-width="1920"
     inkscape:window-height="1043"
     inkscape:window-x="0"
     inkscape:window-y="0"
     inkscape:window-maximized="1"
     inkscape:current-layer="layer1"><inkscape:page
       x="0"
       y="0"
       width="1500"
       height="800"
       id="page1"
       margin="0"
       bleed="0"
       inkscape:export-filename="header.png"
       inkscape:export-xdpi="96"
       inkscape:export-ydpi="96" /></sodipodi:namedview><defs
     id="defs1"><rect
       x="2256.3379"
       y="-31.690142"
       width="225.21127"
       height="144.50703"
       id="rect4" /></defs><g
     inkscape:groupmode="layer"
     id="layer2"
     inkscape:label="Background"><rect
       style="vector-effect:non-scaling-stroke;fill:#212121;fill-opacity:1;stroke-width:1.14954;-inkscape-stroke:hairline"
       id="rect5"
       width="1500"
       height="800"
       x="0"
       y="0"
       inkscape:export-filename="../../../../../../../git/portfolio/assets/images/walden-rpg/header.png"
       inkscape:export-xdpi="96"
       inkscape:export-ydpi="96" /></g><g
     inkscape:label="Camada 1"
     inkscape:groupmode="layer"
     id="layer1"><text
       xml:space="preserve"
       id="text3"
       style="font-size:96px;line-height:0.9;font-family:'Neue Regrade';-inkscape-font-specification:'Neue Regrade';text-align:center;white-space:pre;shape-inside:url(#rect4);display:inline;vector-effect:non-scaling-stroke;fill:none;stroke:#ffffff;stroke-linecap:round;stroke-linejoin:round;-inkscape-stroke:hairline"><tspan
         x="2256.3379"
         y="180.95391"
         id="tspan4"><tspan
           dx="0 60.9375 58.734375 60.9375 37.359375"
           id="tspan3">Sobre</tspan></tspan></text><g
       id="g23"
       transform="matrix(0.81245209,0,0,0.81245209,-1181.159,33.038322)"
       style="fill:#fafafa;fill-opacity:1;stroke-width:1.23084"><path
         id="path13"
         style="vector-effect:non-scaling-stroke;fill:#fafafa;fill-opacity:1;stroke:none;stroke-width:1.24064;stroke-linecap:round;stroke-linejoin:round;stroke-dasharray:none;stroke-dashoffset:0.755906;stroke-opacity:1;-inkscape-stroke:hairline"
         d="m 1932.5,300.00005 a 2.5,2.5 0 0 0 -2.5,2.5 v 10 c 0,1.38071 1.128,2.52207 2.4883,2.29492 6.2903,-1.05038 11.2562,-6.0163 12.3066,-12.30664 0.2272,-1.36029 -0.9142,-2.48828 -2.2949,-2.48828 z m 30,0 c -1.3807,0 -2.4882,1.12239 -2.6016,2.49805 -1.2012,14.57659 -12.8237,26.19919 -27.4004,27.40039 -1.3756,0.11336 -2.5201,1.22954 -2.2929,2.58984 1.0504,6.29032 6.0163,11.25626 12.3066,12.30664 1.3603,0.22715 3.6076,0.20508 4.9883,0.20508 h 10 45 c 1.3807,0 2.4882,1.12239 2.6016,2.49805 1.2012,14.57643 12.8239,26.19916 27.4004,27.40039 1.3756,0.11336 3.6191,0.10684 4.9941,-0.0137 5.6601,-0.49609 11.0656,-2.5898 15.582,-6.03711 1.0972,-0.83749 1.9219,-0.47837 1.9219,0.90234 v 17.75 a 2.5,2.5 0 0 1 -2.5,2.5 h -45 a 2.5,2.5 0 0 0 -2.5,2.5 v 17.50003 c 0,1.38071 -0.015,3.62245 0.1367,4.99414 1.151,10.43276 9.4364,18.71812 19.8692,19.86914 1.3716,0.15134 3.6134,0.13672 4.9941,0.13672 h 2.5 c 1.3807,0 3.6198,0.003 4.998,-0.0762 32.0926,-1.84805 52.232,-36.55672 37.6465,-65.21485 -0.6262,-1.23035 -0.223,-2.75691 0.9727,-3.44726 l 84.916,-49.02539 c 1.1957,-0.69035 2.8141,-0.33776 3.5313,0.84179 13.5226,22.24229 0.2464,52.2629 -26.3438,56.26368 -1.3651,0.20539 -1.8981,1.24852 -1.2793,2.48242 10.7936,21.52129 -8.2615,43.40694 -25.8203,43.20312 -1.3797,-0.016 -2.0923,0.86926 -1.7695,2.21094 3.003,12.48492 -5.389,26.16502 -19.3555,27.63281 -1.3725,0.14425 -2.4961,1.2482 -2.4961,2.62891 v 10 c 0,1.38071 1.121,2.50469 2.498,2.4082 11.9094,-0.83444 22.7223,-7.30172 29.0899,-17.40039 0.7363,-1.16771 2.053,-1.36693 3.0293,-0.39062 l 16.1152,16.11523 a 6.0355317,6.0355317 0 0 1 1.7676,4.26761 v 55 a 6.0355339,6.0355339 0 0 0 1.7676,4.26758 l 11.4648,11.46484 A 6.0355339,6.0355339 0 0 1 2155,542.50005 V 597.5 a 2.5,2.5 0 0 0 2.5,2.5 h 27.5 c 8.31,0 15,-6.68996 15,-14.99995 v -270 c 0,-8.30999 -6.69,-15 -15,-15 h -162.5 c -1.3807,0 -2.4882,1.12239 -2.6016,2.49805 -1.2012,14.57664 -12.8237,26.1992 -27.4004,27.40039 -1.3756,0.11336 -3.6173,0.10156 -4.998,0.10156 h -10 a 2.5,2.5 0 0 1 -2.5,-2.5 v -25 a 2.5,2.5 0 0 0 -2.5,-2.5 z m 30,0 a 2.5,2.5 0 0 0 -2.5,2.5 v 10 c 0,1.38071 1.128,2.52207 2.4883,2.29492 6.2903,-1.05038 11.2562,-6.01628 12.3066,-12.30664 0.2272,-1.36029 -0.9142,-2.48828 -2.2949,-2.48828 z m -79.1621,0.16602 C 1905.8265,300.9981 1900,307.25963 1900,315.00005 v 270 c 0,8.30999 6.69,14.99995 15,14.99995 h 102.5 a 2.5,2.5 0 0 0 2.5,-2.5 v -69.99995 c 0,-1.38071 -1.1205,-2.49425 -2.5,-2.55078 -31.148,-1.27642 -56.1728,-26.30121 -57.4492,-57.44922 -0.056,-1.37946 -0.051,-3.61929 -0.051,-5 v -100 a 2.5,2.5 0 0 0 -2.5,-2.5 h -10 c -1.3807,0 -3.6224,0.0118 -4.998,-0.10156 -14.5767,-1.20122 -26.1992,-12.82385 -27.4004,-27.40039 -0.1132,-1.37565 -0.1014,-3.61734 -0.1014,-4.99805 v -25 a 2.5,2.5 0 0 0 -1.6621,-2.33398 z m 69.1621,59.83398 a 7.5,7.5 0 0 0 -7.5,7.5 7.5,7.5 0 0 0 7.5,7.5 7.5,7.5 0 0 0 7.5,-7.5 7.5,7.5 0 0 0 -7.5,-7.5 z m 145,75 h 25 c 1.3807,0 3.6224,-0.0118 4.998,0.10156 14.5767,1.20121 26.1992,12.82378 27.4004,27.40039 0.1134,1.37565 0.1016,3.61734 0.1016,4.99805 v 10 30 c 0,1.38071 -1.1224,2.5118 -2.498,2.39844 -14.5767,-1.20121 -26.1992,-12.82381 -27.4004,-27.40039 -0.1134,-1.37565 -0.1016,-3.61734 -0.1016,-4.99805 v -10 a 6.0355339,6.0355339 0 0 0 -1.7676,-4.26758 l -26.4648,-26.46484 a 1.0355339,1.0355339 0 0 1 0.7324,-1.76758 z m -169.998,45.10156 c 1.3756,-0.11336 2.498,1.01773 2.498,2.39844 v 25 45 a 2.5,2.5 0 0 1 -2.5,2.5 h -25 a 2.5,2.5 0 0 1 -2.5,-2.5 v -40 c 0,-1.38071 -0.012,-3.62239 0.1016,-4.99805 1.2012,-14.57664 12.8237,-26.1992 27.4004,-27.40039 z m 94.998,44.89844 a 2.5,2.5 0 0 0 -2.5,2.5 V 597.5 a 2.5,2.5 0 0 0 2.5,2.5 h 70 a 2.5,2.5 0 0 0 2.5,-2.5 v -39.99995 a 2.5,2.5 0 0 0 -2.5,-2.5 H 2105 c -1.3807,0 -3.6212,0.002 -4.998,-0.0977 -15.8235,-1.14514 -29.2425,-12.17001 -33.4356,-27.4707 -0.3649,-1.33133 -1.6994,-2.4316 -3.0801,-2.4316 z" /><g
         id="g22"
         style="fill:#fafafa;fill-opacity:1;stroke-width:1.23084"><path
           style="font-size:253.333px;line-height:1.25;font-family:Basteleur;-inkscape-font-specification:Basteleur;text-align:center;text-anchor:middle;white-space:pre;fill:#fafafa;fill-opacity:1;stroke-width:1.23084"
           d="m 2729.9331,602.02668 c 50.4133,8.10665 62.8266,-23.8133 77.5199,-25.07997 15.7067,-1.52 23.0533,29.63996 36.7333,22.54664 11.1467,-5.82666 1.2667,-23.30664 -1.0133,-38.50662 -3.2934,-22.54663 5.5733,-40.78661 5.8266,-53.70659 0.2534,-9.87999 -5.8266,-12.91998 -15.1999,-12.66665 -19.76,0.50666 -28.3733,1.26666 -53.4533,1.52 -13.68,0.25333 -20.0133,5.82665 -20.52,13.17331 -0.5066,8.86666 6.08,13.42665 20.52,12.91998 27.36,-1.01333 32.1733,2.02667 32.1733,15.45332 0,15.19998 -18.7467,26.34663 -42.56,26.34663 -41.0399,0 -77.2665,-28.11996 -77.2665,-74.73323 0,-33.69329 25.5866,-56.49326 55.7332,-56.49326 23.3067,0 43.8266,12.66665 57,33.69329 8.8666,14.18664 18.7466,14.18664 23.3066,5.82665 4.8133,-8.86665 14.1866,-40.53327 16.72,-50.91993 3.2933,-12.91998 -9.12,-13.93331 -30.9067,-6.33332 -16.7199,5.82666 -28.3732,-7.59999 -59.2799,-7.59999 -51.4266,0 -100.5732,39.01328 -100.5732,98.03987 0,53.95992 31.92,89.42654 75.2399,96.51987 z"
           id="path14" /><path
           style="font-size:253.333px;line-height:1.25;font-family:Basteleur;-inkscape-font-specification:Basteleur;text-align:center;text-anchor:middle;white-space:pre;fill:#fafafa;fill-opacity:1;stroke-width:1.23084"
           d="m 2484.4535,601.26668 c 12.92,0 19.76,-2.02667 30.4,-2.02667 10.8933,0 20.2666,2.02667 30.3999,2.02667 9.3733,0 15.4533,-4.56 15.4533,-11.14665 0,-11.90665 -9.1199,-9.87999 -19.5066,-23.55997 -5.32,-7.34666 -7.3467,-17.22665 -7.6,-26.8533 -0.2533,-9.62665 4.0533,-12.66665 19,-11.14665 51.1732,4.81333 88.1599,-25.58663 88.1599,-73.21324 0,-32.67995 -23.0533,-48.89326 -45.0933,-48.89326 -22.04,0 -40.7866,7.85332 -61.5599,7.85332 -10.64,0 -39.52,-4.30666 -47.12,-4.30666 -9.3733,0 -15.4533,4.55999 -15.4533,12.15998 0,8.35999 6.5867,8.86666 16.9733,22.54664 6.3334,8.35999 7.8534,27.35996 7.8534,48.63993 v 24.5733 c 0,21.27997 -1.52,40.27995 -7.8534,48.63994 -10.3866,13.67998 -19.5066,11.65332 -19.5066,23.55997 0,6.58665 6.08,11.14665 15.4533,11.14665 z m 58.7733,-96.01321 c -7.0934,-2.27999 -9.88,-5.82665 -9.88,-16.97331 0,-27.86663 2.7866,-48.89326 36.7333,-54.97326 17.2266,-3.03999 32.1733,6.33333 32.1733,27.86663 0,34.70662 -35.4667,51.67993 -59.0266,44.07994 z"
           id="path15" /><path
           style="font-size:253.333px;line-height:1.25;font-family:Basteleur;-inkscape-font-specification:Basteleur;text-align:center;text-anchor:middle;white-space:pre;fill:#fafafa;fill-opacity:1;stroke-width:1.23084"
           d="m 2403.387,601.52001 c 28.6266,-1.26666 47.8799,-18.23997 47.8799,-68.14657 0,-20.77331 -10.6399,-31.4133 -27.6133,-31.4133 -21.5333,0 -27.8666,15.19998 -21.7866,27.86663 11.6533,23.81331 18.7467,46.35994 9.12,49.39994 -20.0133,6.33332 -6.5867,-64.09325 -64.0932,-65.86658 58.7732,-12.91998 72.9599,-40.78661 72.9599,-68.14658 0,-22.54663 -23.0533,-38.75994 -45.0933,-38.75994 -22.04,0 -38.2533,10.38665 -59.0266,10.38665 -10.64,0 -42.0533,-6.83999 -49.6533,-6.83999 -9.3733,0 -15.4533,4.55999 -15.4533,12.15998 0,8.35999 6.5867,8.86666 16.9733,22.54664 6.3334,8.35999 7.8533,27.35996 7.8533,48.63993 v 24.5733 c 0,21.27997 -1.5199,40.27995 -7.8533,48.63994 -10.3866,13.67998 -19.5066,11.65332 -19.5066,23.55997 0,6.58665 6.08,11.14665 15.4533,11.14665 12.92,0 19.76,-2.02667 30.4,-2.02667 10.8933,0 20.2666,2.02667 30.3999,2.02667 9.3733,0 15.4533,-4.56 15.4533,-11.14665 0,-11.90665 -9.12,-9.87999 -19.5066,-23.55997 -5.32,-7.34666 -7.3467,-22.29331 -7.6,-31.91996 -0.2533,-12.15998 4.56,-14.69331 15.7066,-9.11999 31.6667,15.45332 19,78.2799 74.9866,75.9999 z m -85.8799,-103.35986 c -3.8,0.50667 -5.0666,-0.50667 -5.0666,-4.81333 0,-32.93329 2.7866,-51.42659 36.7332,-57.50659 17.2267,-3.03999 32.1733,3.8 32.1733,17.73331 0,25.58664 -31.9199,40.02662 -63.8399,44.58661 z"
           id="path16" /><path
           style="font-size:113.333px;line-height:1.25;font-family:Basteleur;-inkscape-font-specification:Basteleur;text-align:center;text-anchor:middle;white-space:pre;fill:#fafafa;fill-opacity:1;stroke-width:1.23084"
           d="m 2840.4157,391.91306 c 2.04,-0.79333 2.38,-3.51332 2.38,-7.70664 v -45.21987 c 0,-9.51997 0.68,-18.01995 3.5133,-21.75993 4.6467,-6.11999 7.5934,-6.34665 7.5934,-10.08664 0,-3.39999 -2.72,-5.43999 -6.9134,-5.43999 -4.6466,0 -5.3266,0.90667 -9.6333,0.90667 -4.1933,0 -6.2333,-0.90667 -9.6333,-0.90667 -4.1933,0 -6.9133,2.04 -6.9133,5.43999 0,3.73999 2.9467,3.96665 7.5933,10.08664 2.8334,3.73998 3.5134,12.23996 3.5134,21.75993 v 18.35995 c 0,1.35999 -0.5667,1.69999 -1.4734,0.68 l -42.2732,-51.90652 c -1.8133,-2.26666 -3.9666,-4.41999 -7.7066,-4.41999 -4.6467,0 -5.3267,0.90667 -9.6333,0.90667 -4.1933,0 -6.2333,-0.90667 -9.6333,-0.90667 -4.1934,0 -6.9133,2.04 -6.9133,5.43999 0,3.73999 2.9466,3.96665 7.5933,10.08664 2.8333,3.73998 3.5133,12.23996 3.5133,21.75993 v 10.9933 c 0,9.51998 -0.68,18.01995 -3.5133,21.75994 -4.6467,6.11998 -8.7267,5.21332 -8.7267,10.53997 0,2.94666 2.72,4.98665 6.9133,4.98665 5.78,0 6.5734,-0.90666 10.7667,-0.90666 4.3066,0 6.2333,0.90666 10.7666,0.90666 4.1933,0 6.9133,-2.03999 6.9133,-4.98665 0,-5.32665 -4.08,-4.41999 -8.7266,-10.53997 -2.8333,-3.73999 -3.5133,-12.23996 -3.5133,-21.75994 v -10.9933 c 0,-5.66665 0.34,-11.10663 0.9066,-14.16662 0.2267,-1.7 0.7934,-1.7 1.8133,-0.45334 19.1533,22.32661 51.2266,60.63316 54.0599,63.91982 2.9466,3.51332 5.2133,4.41998 7.3666,3.62665 z"
           id="path17" /><path
           style="font-size:113.333px;line-height:1.25;font-family:Basteleur;-inkscape-font-specification:Basteleur;text-align:center;text-anchor:middle;white-space:pre;fill:#fafafa;fill-opacity:1;stroke-width:1.23084"
           d="m 2705.5494,388.28641 c 20.4,0 31.6199,-13.0333 37.5132,-27.65325 1.4734,-3.62666 1.36,-6.57332 -0.2266,-7.36665 -2.6067,-1.24666 -4.1933,0.56667 -6.9133,4.41999 -5.1,7.25331 -13.1467,12.91996 -23.8,12.91996 -12.6933,0 -24.3666,-6.11998 -28.2199,-15.07329 -3.6266,-8.38664 1.7,-8.38664 6.5733,-8.72664 12.58,-0.68 17.34,1.47333 19.8333,6.00665 2.38,4.41999 5.44,7.70664 9.6333,6.45998 3.4,-1.02 4.08,-7.59331 2.9467,-16.88662 -0.9067,-7.47998 -4.1934,-14.50662 -10.2,-14.50662 -7.14,0 -3.5133,9.6333 -23.3466,8.04664 -6.12,-0.45333 -10.0866,-0.56666 -7.82,-8.61331 3.1733,-9.06664 10.88,-15.41329 20.9666,-15.41329 10.4267,0 17.34,5.66665 23.2333,15.07329 3.9667,6.34665 7.82,6.00665 10.4266,2.60666 2.1534,-2.83332 4.3067,-18.13328 4.08,-21.6466 -0.34,-4.87332 -2.9466,-5.09999 -10.4266,-3.96666 -7.82,1.13333 -10.4267,-3.39999 -24.2533,-3.39999 -23.0066,0 -42.7265,19.71995 -42.7265,43.85988 0,24.13993 18.5866,43.85987 42.7265,43.85987 z"
           id="path18" /><path
           style="font-size:113.333px;line-height:1.25;font-family:Basteleur;-inkscape-font-specification:Basteleur;text-align:center;text-anchor:middle;white-space:pre;fill:#fafafa;fill-opacity:1;stroke-width:1.23084"
           d="m 2562.9765,387.26641 c 5.78,0 10.2,-3.96665 31.1666,-1.24666 28.4466,3.62665 58.4798,-5.21332 58.4798,-41.59321 0,-26.29326 -19.1533,-44.42654 -44.3132,-44.42654 -12.0133,0 -19.2666,2.60666 -30.5999,2.60666 -4.76,0 -10.2,-0.90667 -13.6,-0.90667 -4.1933,0 -6.9133,2.04 -6.9133,5.43999 0,3.73999 2.9467,3.96665 7.5933,10.08664 2.8334,3.73998 3.5134,12.23996 3.5134,21.75993 v 10.9933 c 0,9.51998 -0.68,18.01995 -3.5134,21.75994 -4.6466,6.11998 -8.7266,5.21332 -8.7266,10.53997 0,2.94666 2.72,4.98665 6.9133,4.98665 z m 41.3666,-10.87997 c -14.62,-2.15332 -19.8333,-14.50662 -19.8333,-40.79988 0,-18.24661 6.0066,-24.70659 17.5666,-24.70659 19.6066,0 31.3932,20.9666 31.3932,40.45988 0,15.07329 -10.8799,27.65325 -29.1265,25.04659 z"
           id="path19" /><path
           style="font-size:113.333px;line-height:1.25;font-family:Basteleur;-inkscape-font-specification:Basteleur;text-align:center;text-anchor:middle;white-space:pre;fill:#fafafa;fill-opacity:1;stroke-width:1.23084"
           d="m 2534.87,387.37974 c 6.0066,0 10.54,-3.51332 11.6733,-14.50662 1.1333,-11.10663 -0.1134,-21.3066 -4.08,-22.09994 -3.74,-0.79333 -6.12,2.94666 -9.6333,8.95331 -6.6867,11.3333 -12.24,16.77329 -21.3066,16.77329 -10.4267,0 -10.9933,-8.49998 -10.9933,-19.71995 v -17.79328 c 0,-9.51997 0.68,-18.01995 3.5133,-21.75993 4.6467,-6.11999 7.5933,-6.34665 7.5933,-10.08664 0,-3.39999 -2.72,-5.43999 -6.9133,-5.43999 -4.6466,0 -7.5933,0.90667 -12.4666,0.90667 -4.76,0 -9.0667,-0.90667 -12.4667,-0.90667 -4.1933,0 -6.9133,2.04 -6.9133,5.43999 0,3.73999 2.9467,3.96665 7.5933,10.08664 2.8334,3.73998 3.5134,12.23996 3.5134,21.75993 v 10.9933 c 0,9.51998 -0.68,18.01995 -3.5134,21.75994 -4.6466,6.11998 -8.7266,5.21332 -8.7266,10.53997 0,2.94666 2.72,4.98665 6.9133,4.98665 5.78,0 15.64,-0.90666 24.9333,-0.90666 9.1799,0 25.2732,1.01999 31.2799,1.01999 z"
           id="path20" /><path
           style="font-size:113.333px;line-height:1.25;font-family:Basteleur;-inkscape-font-specification:Basteleur;text-align:center;text-anchor:middle;white-space:pre;fill:#fafafa;fill-opacity:1;stroke-width:1.23084"
           d="m 2451.7969,386.69975 c 6.46,0 9.7466,-4.53332 9.7466,-8.38665 0,-3.85332 -6.8,-8.49997 -13.2599,-23.34659 -5.78,-13.14663 -3.2867,-23.91327 1.5866,-31.84658 5.1,-8.27331 9.9733,-12.80663 4.8733,-17.45328 -3.9666,-3.62666 -11.8999,0.22667 -20.5132,5.55332 -1.2467,0.79333 -1.8134,0.79333 -3.06,-0.22667 -8.0467,-7.02665 -16.32,-9.6333 -29.8066,-9.6333 -15.0733,0 -20.5133,5.89331 -20.6266,9.74663 -0.1133,3.62666 4.08,5.77999 9.2933,4.75999 7.5933,-1.58666 19.3799,-0.68 25.2733,2.71999 1.8133,1.02 1.8133,2.15333 0,3.17333 -29.8066,17.22661 -50.2066,53.60651 -35.5866,64.37314 10.9933,8.04664 40.9132,-5.32665 50.5465,-26.97325 0.7934,-1.81333 1.9267,-1.7 2.1533,0 2.1534,17.45328 8.84,27.53992 19.38,27.53992 z m -55.9865,-18.01995 c -4.1933,-2.94666 -1.1333,-12.12663 8.3866,-24.0266 7.14,-8.83997 14.1667,-13.71329 18.2466,-16.31995 1.5867,-1.02 2.2667,-0.90666 3.06,0.56666 2.9467,6.11999 0.7934,15.29996 -7.4799,26.51993 -8.0467,10.87997 -18.02,16.20662 -22.2133,13.25996 z"
           id="path21" /><path
           style="font-size:113.333px;line-height:1.25;font-family:Basteleur;-inkscape-font-specification:Basteleur;text-align:center;text-anchor:middle;white-space:pre;fill:#fafafa;fill-opacity:1;stroke-width:1.23084"
           d="m 2281.1175,390.09974 c 4.1933,-0.22667 6.12,-3.28666 8.9533,-10.76664 l 17.2266,-44.9932 c 0.9067,-2.37999 1.7,-2.49333 2.6067,0 l 16.8866,44.87987 c 2.38,6.34665 3.9666,10.87997 8.9533,10.87997 4.8733,0 5.78,-4.41999 7.82,-10.87997 l 12.8066,-39.66655 c 2.72,-8.38665 6.3467,-18.01995 9.18,-21.75994 4.6466,-6.11998 8.7266,-5.21332 8.7266,-10.53997 0,-2.94666 -2.72,-4.98665 -6.9133,-4.98665 -5.78,0 -8.2733,0.90666 -10.7666,0.90666 -2.6067,0 -6.2333,-0.90666 -10.7667,-0.90666 -4.1933,0 -6.9133,2.03999 -6.9133,4.98665 0,5.32665 4.08,4.41999 8.7267,10.53997 2.8333,3.73999 1.02,12.6933 -2.2667,21.75994 l -6.12,17.11328 c -0.9066,2.49333 -1.7,2.49333 -2.6066,0 l -18.5866,-50.99985 c -1.7,-4.53332 -3.8534,-5.55332 -8.0467,-4.30665 l -7.0266,2.15332 c -3.1734,0.90667 -3.4,4.07999 -1.7,7.36665 1.7,3.28665 1.36,5.89331 0.34,8.38664 l -14.7333,35.92656 c -1.02,2.49333 -1.8134,4.75999 -3.1733,4.75999 -1.2467,0 -1.8134,-2.26666 -3.06,-6.11998 l -4.6467,-14.27996 c -2.9466,-9.17998 -6.12,-18.01995 -3.2866,-21.75994 3.5133,-4.64665 8.7266,-5.21332 8.7266,-10.53997 0,-2.94666 -2.72,-4.98665 -6.9133,-4.98665 -5.78,0 -8.84,0.90666 -13.6,0.90666 -4.8733,0 -9.0666,-0.90666 -13.5999,-0.90666 -4.1934,0 -6.9134,2.03999 -6.9134,4.98665 0,5.32665 4.08,4.41999 8.7267,10.53997 2.8333,3.73999 5.44,12.6933 8.7266,21.75994 l 14.1667,39.66655 c 2.4933,7.13998 5.0999,10.9933 9.0666,10.87997 z"
           id="path22" /></g></g></g></svg>
