<?xml version="1.0" encoding="UTF-8" standalone="no"?>
<svg
   width="24"
   height="24"
   viewBox="0 0 24 24"
   fill="none"
   stroke="currentColor"
   stroke-width="3"
   stroke-linecap="round"
   stroke-linejoin="round"
   class="feather feather-twitter"
   version="1.1"
   id="svg1"
   sodipodi:docname="whatsapp.svg"
   inkscape:version="1.3.2 (091e20ef0f, 2023-11-25)"
   xmlns:inkscape="http://www.inkscape.org/namespaces/inkscape"
   xmlns:sodipodi="http://sodipodi.sourceforge.net/DTD/sodipodi-0.dtd"
   xmlns="http://www.w3.org/2000/svg"
   xmlns:svg="http://www.w3.org/2000/svg">
  <defs
     id="defs1" />
  <sodipodi:namedview
     id="namedview1"
     pagecolor="#ffffff"
     bordercolor="#000000"
     borderopacity="0.25"
     inkscape:showpageshadow="2"
     inkscape:pageopacity="0.0"
     inkscape:pagecheckerboard="0"
     inkscape:deskcolor="#d1d1d1"
     showguides="false"
     inkscape:zoom="8.7187505"
     inkscape:cx="8.6594977"
     inkscape:cy="3.7275984"
     inkscape:window-width="1920"
     inkscape:window-height="1043"
     inkscape:window-x="0"
     inkscape:window-y="0"
     inkscape:window-maximized="1"
     inkscape:current-layer="svg1" />
  <g
     id="g2"
     transform="translate(0.126075,0.16107695)">
    <path
       style="fill:#000000;fill-opacity:1;stroke:#000000;stroke-width:1.5;stroke-miterlimit:10;stroke-dasharray:none"
       d="M 9.0879349,7.1256968 C 8.8616736,6.5886214 8.6316334,6.6613651 8.460166,6.6528626 8.2976736,6.6453048 8.1120354,6.642943 7.9259248,6.642943 7.7398143,6.642943 7.4379751,6.711908 7.181955,6.9877671 6.9259349,7.2636264 6.2055831,7.9296566 6.2055831,9.285335 c 0,1.355678 0.9995176,2.664593 1.1388643,2.848814 0.1398191,0.183749 1.9669146,2.965488 4.7647136,4.158674 0.665558,0.283417 1.185156,0.452995 1.58997,0.58006 0.667919,0.209729 1.276321,0.17997 1.757186,0.109115 0.535658,-0.07888 1.650432,-0.666502 1.882834,-1.309386 0.232402,-0.643357 0.232402,-1.194604 0.162492,-1.309388 -0.06991,-0.114783 -0.25602,-0.183748 -0.534713,-0.321678 -0.278694,-0.13793 -1.650432,-0.804432 -1.906452,-0.895598 -0.256021,-0.09211 -0.441659,-0.13793 -0.627769,0.13793 -0.186111,0.275859 -0.720352,0.895598 -0.882844,1.079819 -0.162493,0.183749 -0.325458,0.206894 -0.604151,0.06897 C 12.66702,14.294732 11.767643,14.004229 10.70294,13.065647 9.8734726,12.335375 9.3137238,11.433636 9.1512314,11.157777 8.9887389,10.881918 9.133754,10.733124 9.2735731,10.595667 9.3992213,10.471908 9.5522665,10.273988 9.6920856,10.112913 9.8319047,9.9518375 9.8781962,9.8370536 9.9707791,9.6533048 10.063362,9.4695561 10.017071,9.3084807 9.947161,9.170551 9.8781962,9.0326214 9.3203369,7.6774154 9.0879349,7.1256968 Z"
       id="path1-6" />
    <path
       style="fill:none;stroke:#000000;stroke-width:3;stroke-linejoin:round;stroke-miterlimit:10;stroke-dasharray:none"
       d="m 11.873925,1.4469631 c -5.7391962,0 -10.39196,4.6527638 -10.39196,10.3919599 0,1.923457 0.524794,3.724101 1.4359799,5.269196 L 1.481965,22.230883 6.8073721,20.911576 c 1.4992763,0.838915 3.2262309,1.319307 5.0665529,1.319307 5.739196,0 10.39196,-4.652764 10.39196,-10.39196 0,-5.7391961 -4.652764,-10.3919599 -10.39196,-10.3919599 z"
       id="path2-2" />
  </g>
</svg>
